<svg xmlns="http://www.w3.org/2000/svg" width="30" height="41" fill="none" viewBox="0 0 30 41"><path fill="#fff" d="M0 0h30v41H0z"/><mask id="a" width="30" height="41" x="0" y="0" maskUnits="userSpaceOnUse" style="mask-type:alpha"><path fill="#fff" d="M0 0h30v41H0z"/></mask><g fill-rule="evenodd" clip-rule="evenodd" mask="url(#a)"><path fill="#4481c3" d="M24.62.913999c.0668-.302082.2509-.565241.5118-.731586.2609-.1663443.5771-.2222485.8792-.155414.3021.0668346.5652.250933.7316.511796.1663.260863.2222.577125.1554.879205L18.33 40.086c-.0331.1495-.0953.291-.1831.4165s-.1994.2324-.3285.3147c-.1292.0823-.2732.1384-.424.1651-.1508.0266-.3054.0233-.4549-.0098s-.291-.0953-.4165-.1831-.2324-.1994-.3147-.3286c-.0823-.1291-.1384-.2731-.1651-.4239-.0266-.1508-.0233-.3054.0098-.4549z"/><path fill="#383838" d="M12.343 16.3829c.148.328.191.629.129.902H15.8c.172-1.344-.125-2.42-.89-3.228-.766-.809-1.938-1.213-3.516-1.213-1.094 0-2.08797.25-2.98297.75-.894.5-1.67 1.16-2.326 1.98-.765.961-1.398 2.164-1.898 3.61-.282.812-.563 1.867-.844 3.164-.469 2.21-.457 4.015.035 5.414.633 1.789 2.02 2.683 4.16 2.683 1.992 0 3.58997-.605 4.79297-1.816s1.973-2.61 2.309-4.195c.344-1.594.142-2.903-.604-3.926-.746-1.024-1.873-1.535-3.38-1.535-.66593-.0067-1.32749.1086-1.95197.34-.62361.2431-1.19165.6098-1.67 1.078.375-1.313.758-2.305 1.149-2.977.719-1.219 1.62-1.828 2.70697-1.828.726 0 1.21.266 1.453.797m-2.244 10.506c-.54297.558-1.18597.838-1.92797.838-.758 0-1.322-.29-1.693-.868s-.46-1.324-.264-2.238q.363-1.6995 1.512-2.46c.47354-.3335 1.03784-.5139 1.617-.517.70297 0 1.23997.264 1.61097.792.371.527.451 1.287.24 2.279-.187.89-.552 1.615-1.095 2.174m29.701-9.153q-.048-2.208-1.212-3.144t-3.372-.936q-1.56 0-2.832.624c-.8416.4112 26.2404 2.5897 25.616 3.288-.6486.7293-1.0413.7101-1.4509 1.596-.432.92-13.6219 1.076-13.8299 2.1-.208.96-.4712 1.1051-.4712 2.0331s14.7457 5.7709 15.0577 6.4989c.3103.726.0276.7811.6943 1.2041.688.448-2.184-.5-1-.5.7118.0042-23.5093-1.5538-22.84-1.7961.6514-.2375 1.2625-.5734 1.812-.996.5582-.4303 1.0548-.935 1.476-1.5.439-.5879.8094-1.224 1.104-1.896h1.704q-.552 1.248-1.344 2.364c-.5225.7382-1.149 1.397-1.86 1.956-.7413.576-1.5724 1.026-2.46 1.332C33.664 30.2919 59.152 31 58 31c-1.328 0-21.188-.5121-22.028-1.0001-.8127-.4595 1.4518-1.1681 1.028-2-.424-.832.04-1.904 0-3s-2.272-1.768-2-3c.352-1.648-.648-3.112 0-4.264s25.128-2.008 26-2.736c.8456-.7135-11.8154-.3879-10.76-.72 1.0686-.3311-15.4226-2.021-14.304-2.016q2.664 0 4.176 1.392t1.368 4.08zm2.448 12.264 2.64-12.432h1.44l-2.64 12.432zm3.6-17.28-.456 2.136h1.584l.456-2.136zm5.88 17.328q-.264.048-.732.168t-.996.12q-1.08 0-1.524-.54t-.156-1.932l1.92-9.096h-1.752l.264-1.2h1.752l.744-3.456h1.44l-.744 3.456h2.328l-.264 1.2H51.68l-1.8 8.52q-.096.456-.144.792t.036.552.312.312.684.096q.288 0 .588-.048t.612-.12zm5.16-12.48-2.64 12.432h1.44l2.64-12.432zm.504-2.712.456-2.136h1.584l-.456 2.136zm12.588 6.348q.084.804-.108 1.716H61.76c.1901-.5878.4479-1.1516.768-1.68q.48-.792 1.128-1.392t1.452-.96c.5557-.2441 1.1571-.3668 1.764-.36q.96 0 1.632.348t1.032.936.444 1.392m-8.484 2.916c-.1406.6256-.1891 1.2684-.144 1.908q.072.9.456 1.56t1.092 1.056 1.74.396q1.416 0 2.58-.744t1.788-2.112h1.608c-.2959.5794-.6455 1.1298-1.044 1.644-.3886.5007-.845.945-1.356 1.32-.5253.3828-1.1087.6786-1.728.876q-.96.312-2.136.312-1.488 0-2.46-.504t-1.488-1.38-.588-2.064.216-2.556c.1864-.8967.5017-1.7617.936-2.568q.648-1.2 1.572-2.1c.6058-.593 1.313-1.0726 2.088-1.416.7903-.347 1.645-.5228 2.508-.516q2.568 0 3.66 1.764t.348 5.124zm13.62 4.26q-.732-.66-.756-2.268h-1.464c-.097.549-.0848 1.1117.036 1.656q.18.768.66 1.344t1.26.9 1.884.324 2.076-.228c.615-.139 1.2056-.3696 1.752-.684q.78-.456 1.296-1.14t.708-1.572-.024-1.488c-.1366-.3894-.3773-.7339-.696-.996-.3408-.2757-.7264-.4908-1.14-.636q-.66-.24-1.368-.42-.69105-.17565-1.38-.36c-.4071-.1044-.8014-.2533-1.176-.444-.3102-.1532-.5749-.3849-.768-.672q-.264-.408-.12-1.032.192-.96 1.044-1.548t2.22-.588q1.344 0 2.112.588t.672 2.028h1.464q.168-2.112-.888-3.012t-3.072-.9q-2.088 0-3.432.996t-1.68 2.556q-.264 1.224.18 1.896t1.26 1.032 1.8.54 1.824.432 1.332.696.3 1.356c-.0663.3095-.1927.6031-.372.864-.1956.2839-.4393.5316-.72.732-.3214.2285-.6781.4028-1.056.516-.4555.1347-.9289.1994-1.404.192q-1.632 0-2.364-.66"/></g></svg>