<svg xmlns="http://www.w3.org/2000/svg" width="24" height="41" fill="none" viewBox="0 0 24 41"><mask id="a" width="24" height="41" x="0" y="0" maskUnits="userSpaceOnUse" style="mask-type:alpha"><path fill="#fff" d="M0 0h24v41H0z"/></mask><g fill-rule="evenodd" clip-rule="evenodd" mask="url(#a)"><path fill="#4481c3" d="M21.62.914a1.166 1.166 0 1 1 2.278.504L15.33 40.086a1.166 1.166 0 0 1-2.277-.504z"/><path fill="#383838" d="M9.343 16.383q.222.492.129.902H12.8q.258-2.016-.89-3.228t-3.516-1.213q-1.64 0-2.983.75a7.9 7.9 0 0 0-2.326 1.98q-1.148 1.441-1.898 3.61-.423 1.218-.844 3.164-.703 3.315.035 5.414.95 2.683 4.16 2.683 2.988 0 4.793-1.816t2.309-4.195q.515-2.391-.604-3.926-1.12-1.535-3.38-1.535a5.5 5.5 0 0 0-1.952.34 5 5 0 0 0-1.67 1.078q.563-1.97 1.149-2.977 1.078-1.828 2.707-1.828 1.089 0 1.453.797M7.099 26.889q-.815.837-1.928.838-1.137 0-1.693-.868-.557-.867-.264-2.238.363-1.7 1.512-2.46a2.84 2.84 0 0 1 1.617-.517q1.055 0 1.611.792.556.79.24 2.279-.28 1.335-1.095 2.174M36.8 17.736q-.048-2.208-1.212-3.144t-3.372-.936q-1.56 0-2.832.624a7.2 7.2 0 0 0-2.22 1.68 10 10 0 0 0-1.596 2.436q-.648 1.38-.96 2.916-.312 1.44-.312 2.832t.468 2.484c.31.726.833 1.341 1.5 1.764q1.032.672 2.808.672a6 6 0 0 0 2.088-.36 6.8 6.8 0 0 0 1.812-.996 7.7 7.7 0 0 0 1.476-1.5 9.6 9.6 0 0 0 1.104-1.896h1.704q-.552 1.248-1.344 2.364a9.4 9.4 0 0 1-1.86 1.956 8.6 8.6 0 0 1-2.46 1.332q-1.392.492-3.12.492c-1.328 0 5.34.032 4.5-.456-.813-.46 1.452-1.168 1.028-2s.04-1.904 0-3-2.272-1.768-2-3c.352-1.648-.648-3.112 0-4.264s-6.116-2.668-5.244-3.396a8.4 8.4 0 0 1 2.88-1.584 11 11 0 0 1 3.3-.492q2.664 0 4.176 1.392t1.368 4.08zM39.248 30l2.64-12.432h1.44L40.688 30zm3.6-17.28-.456 2.136h1.584l.456-2.136zm5.88 17.328q-.264.048-.732.168t-.996.12q-1.08 0-1.524-.54t-.156-1.932l1.92-9.096h-1.752l.264-1.2h1.752l.744-3.456h1.44l-.744 3.456h2.328l-.264 1.2H48.68l-1.8 8.52q-.096.456-.144.792t.036.552.312.312.684.096q.288 0 .588-.048t.612-.12zm5.16-12.48L51.248 30h1.44l2.64-12.432zm.504-2.712.456-2.136h1.584l-.456 2.136zm12.588 6.348q.084.804-.108 1.716H58.76c.19-.588.448-1.152.768-1.68q.48-.792 1.128-1.392t1.452-.96a4.3 4.3 0 0 1 1.764-.36q.96 0 1.632.348t1.032.936.444 1.392m-8.484 2.916a6.6 6.6 0 0 0-.144 1.908q.072.9.456 1.56t1.092 1.056 1.74.396q1.416 0 2.58-.744t1.788-2.112h1.608q-.445.872-1.044 1.644c-.389.5-.845.945-1.356 1.32a6 6 0 0 1-1.728.876q-.96.312-2.136.312-1.488 0-2.46-.504t-1.488-1.38-.588-2.064.216-2.556a9.5 9.5 0 0 1 .936-2.568q.648-1.2 1.572-2.1a7.1 7.1 0 0 1 2.088-1.416 6.1 6.1 0 0 1 2.508-.516q2.568 0 3.66 1.764t.348 5.124zm13.62 4.26q-.732-.66-.756-2.268h-1.464a4.2 4.2 0 0 0 .036 1.656q.18.768.66 1.344t1.26.9 1.884.324 2.076-.228a6.3 6.3 0 0 0 1.752-.684q.78-.456 1.296-1.14t.708-1.572-.024-1.488a2.26 2.26 0 0 0-.696-.996 3.8 3.8 0 0 0-1.14-.636q-.66-.24-1.368-.42-.69-.175-1.38-.36a5.7 5.7 0 0 1-1.176-.444 2 2 0 0 1-.768-.672q-.264-.408-.12-1.032.192-.96 1.044-1.548t2.22-.588q1.344 0 2.112.588t.672 2.028h1.464q.168-2.112-.888-3.012t-3.072-.9q-2.088 0-3.432.996t-1.68 2.556q-.264 1.224.18 1.896t1.26 1.032 1.8.54 1.824.432 1.332.696.3 1.356c-.066.31-.193.603-.372.864a3 3 0 0 1-.72.732 3.6 3.6 0 0 1-1.056.516c-.456.135-.929.2-1.404.192q-1.632 0-2.364-.66"/></g></svg>